<svg width="21" height="21" viewBox="0 0 21 21" fill="none" xmlns="http://www.w3.org/2000/svg">
<path d="M20.8718 19.6345L14.7715 13.5342C15.9285 12.1057 16.625 10.2897 16.625 8.31253C16.625 3.72903 12.896 0 8.31249 0C3.72898 0 0 3.72903 0 8.31253C0 12.896 3.72903 16.6251 8.31253 16.6251C10.2897 16.6251 12.1057 15.9285 13.5342 14.7715L19.6346 20.8719C19.8055 21.0427 20.0824 21.0427 20.2533 20.8719L20.8719 20.2533C21.0427 20.0824 21.0427 19.8054 20.8718 19.6345ZM8.31253 14.875C4.69376 14.875 1.75002 11.9313 1.75002 8.31253C1.75002 4.69376 4.69376 1.75002 8.31253 1.75002C11.9313 1.75002 14.875 4.69376 14.875 8.31253C14.875 11.9313 11.9313 14.875 8.31253 14.875Z" fill="white"/>
</svg>
