<svg width="64" height="64" viewBox="0 0 64 64" fill="none" xmlns="http://www.w3.org/2000/svg">
<path d="M0 48.1723C0 50.8195 2.14588 52.9655 4.79313 52.9655H59.2069C61.854 52.9655 64 50.8196 64 48.1723V44.1378H0V48.1723Z" fill="#C8414B"/>
<path d="M59.2069 11.0345H4.79313C2.14588 11.0345 0 13.1804 0 15.8276V19.8621H64V15.8276C64 13.1804 61.8541 11.0345 59.2069 11.0345Z" fill="#C8414B"/>
<path d="M64 19.8625H0V44.1387H64V19.8625Z" fill="#FFD250"/>
<path d="M27.0345 32L27.9702 27.7899C28.0564 27.4021 27.7613 27.0344 27.364 27.0344H26.705C26.3079 27.0344 26.0129 27.4022 26.0989 27.7899L27.0345 32Z" fill="#C8414B"/>
<path d="M28.1381 29.7925H25.9312V39.1713H28.1381V29.7925Z" fill="#F5F5F5"/>
<path d="M28.6891 28.69H25.3787V29.7935H28.6891V28.69Z" fill="#FAB446"/>
<path d="M28.69 32H23.1725V33.1035H28.69V32Z" fill="#C8414B"/>
<path d="M28.6896 36.4137L25.3792 35.3103V34.2068L28.6896 35.3103V36.4137Z" fill="#C8414B"/>
<path d="M10.4827 32L11.4183 27.7899C11.5046 27.4021 11.2095 27.0344 10.8122 27.0344H10.1532C9.75609 27.0344 9.46109 27.4022 9.54709 27.7899L10.4827 32Z" fill="#C8414B"/>
<path d="M14.3449 28.6896C13.7355 28.6896 13.2414 29.1838 13.2414 29.7931V36.9655C13.2414 38.3061 14.4926 40.8276 18.7586 40.8276C23.0246 40.8276 24.2759 38.3063 24.2759 36.9655V29.7931C24.2759 29.1838 23.7818 28.6896 23.1724 28.6896H14.3449Z" fill="#F5F5F5"/>
<path d="M18.7586 34.2069H13.2414V29.7931C13.2414 29.1838 13.7355 28.6896 14.3449 28.6896H18.7586V34.2069Z" fill="#C8414B"/>
<path d="M18.7587 34.2069H24.2759V36.9655C24.2759 38.4891 23.0409 39.7241 21.5173 39.7241C19.9937 39.7241 18.7587 38.4891 18.7587 36.9655V34.2069Z" fill="#C8414B"/>
<path d="M13.2414 34.2069H18.7586V36.9655C18.7586 38.4891 17.5236 39.7241 16 39.7241C14.4764 39.7241 13.2414 38.4891 13.2414 36.9655V34.2069Z" fill="#FAB446"/>
<path d="M17.6551 39.16V34.2069H16.5516V39.6685C16.9621 39.5853 17.333 39.4035 17.6551 39.16Z" fill="#C8414B"/>
<path d="M15.4482 39.6685V34.2069H14.3447V39.16C14.667 39.4035 15.0379 39.5853 15.4482 39.6685Z" fill="#C8414B"/>
<path d="M17.6553 32H14.345V33.1035H17.6553V32Z" fill="#FFB441"/>
<path d="M17.6553 29.7925H14.345V30.896H17.6553V29.7925Z" fill="#FAB446"/>
<path d="M17.1031 30.4488H14.8962V32.4478H17.1031V30.4488Z" fill="#FAB446"/>
<path d="M11.5856 29.7925H9.37872V39.1713H11.5856V29.7925Z" fill="#F5F5F5"/>
<path d="M12.1379 38.6212H8.82751V39.7247H12.1379V38.6212Z" fill="#FAB446"/>
<path d="M12.1379 28.69H8.82751V29.7935H12.1379V28.69Z" fill="#FAB446"/>
<path d="M12.69 39.7238H8.27625V40.8273H12.69V39.7238Z" fill="#5064AA"/>
<path d="M29.2416 38.6212H25.9312V39.7247H29.2416V38.6212Z" fill="#FAB446"/>
<path d="M29.2413 39.7238H24.8275V40.8273H29.2413V39.7238Z" fill="#5064AA"/>
<path d="M22.0695 27.5862H15.4487V28.6897H22.0695V27.5862Z" fill="#FAB446"/>
<path d="M19.311 24.2762H18.2075V27.5866H19.311V24.2762Z" fill="#FFB441"/>
<path d="M17.6551 25.931C16.7424 25.931 16 25.1885 16 24.2759C16 23.3631 16.7425 22.6208 17.6551 22.6208C18.5679 22.6208 19.3102 23.3633 19.3102 24.2759C19.3104 25.1885 18.5679 25.931 17.6551 25.931ZM17.6551 23.7241C17.3507 23.7241 17.1034 23.9714 17.1034 24.2759C17.1034 24.5803 17.3506 24.8276 17.6551 24.8276C17.9596 24.8276 18.2069 24.5804 18.2069 24.2759C18.2069 23.9715 17.9596 23.7241 17.6551 23.7241Z" fill="#F5F5F5"/>
<path d="M19.8622 25.931C18.9494 25.931 18.207 25.1885 18.207 24.2759C18.207 23.3631 18.9495 22.6208 19.8622 22.6208C20.7749 22.6208 21.5173 23.3633 21.5173 24.2759C21.5173 25.1885 20.7748 25.931 19.8622 25.931ZM19.8622 23.7241C19.5578 23.7241 19.3104 23.9714 19.3104 24.2759C19.3104 24.5803 19.5577 24.8276 19.8622 24.8276C20.1665 24.8276 20.4139 24.5804 20.4139 24.2759C20.4138 23.9715 20.1665 23.7241 19.8622 23.7241Z" fill="#F5F5F5"/>
<path d="M22.069 27.0345C21.1563 27.0345 20.4139 26.292 20.4139 25.3794C20.4139 24.4666 21.1564 23.7242 22.069 23.7242C22.9818 23.7242 23.7241 24.4667 23.7241 25.3794C23.7241 26.292 22.9816 27.0345 22.069 27.0345ZM22.069 24.8276C21.7646 24.8276 21.5173 25.0749 21.5173 25.3794C21.5173 25.6837 21.7645 25.9311 22.069 25.9311C22.3734 25.9311 22.6208 25.6839 22.6208 25.3794C22.6208 25.0749 22.3734 24.8276 22.069 24.8276Z" fill="#F5F5F5"/>
<path d="M15.4483 27.0345C14.5355 27.0345 13.7932 26.292 13.7932 25.3794C13.7932 24.4666 14.5357 23.7242 15.4483 23.7242C16.361 23.7242 17.1034 24.4667 17.1034 25.3794C17.1035 26.292 16.361 27.0345 15.4483 27.0345ZM15.4483 24.8276C15.1439 24.8276 14.8965 25.0749 14.8965 25.3794C14.8965 25.6837 15.1438 25.9311 15.4483 25.9311C15.7528 25.9311 16 25.6837 16 25.3792C16 25.0749 15.7528 24.8276 15.4483 24.8276Z" fill="#F5F5F5"/>
<path d="M22.069 36.4137V36.9655C22.069 37.2697 21.8215 37.5172 21.5173 37.5172C21.213 37.5172 20.9655 37.2697 20.9655 36.9655V36.4137H22.069ZM23.1724 35.3104H19.862V36.9655C19.862 37.8782 20.6045 38.6206 21.5171 38.6206C22.4299 38.6206 23.1723 37.8781 23.1723 36.9655V35.3104H23.1724Z" fill="#FAB446"/>
<path d="M21.5173 33.1035C20.9079 33.1035 20.4138 32.6094 20.4138 32V30.8965C20.4138 30.2871 20.9079 29.793 21.5173 29.793C22.1266 29.793 22.6208 30.2871 22.6208 30.8965V32C22.6208 32.6094 22.1266 33.1035 21.5173 33.1035Z" fill="#FFA0D2"/>
<path d="M18.7588 35.8614C19.6729 35.8614 20.4139 35.1203 20.4139 34.2062C20.4139 33.2921 19.6729 32.5511 18.7588 32.5511C17.8447 32.5511 17.1036 33.2921 17.1036 34.2062C17.1036 35.1203 17.8447 35.8614 18.7588 35.8614Z" fill="#5064AA"/>
<path d="M19.311 22.0688H18.2075V25.3791H19.311V22.0688Z" fill="#FAB446"/>
<path d="M15.4482 27.5863L14.3447 26.4828L14.9911 25.8364C15.9902 24.8373 17.3455 24.2759 18.7586 24.2759C20.1717 24.2759 21.5268 24.8373 22.5261 25.8364L23.1725 26.4828L22.069 27.5863H15.4482Z" fill="#C8414B"/>
<path d="M18.7588 27.0343C19.0635 27.0343 19.3105 26.7872 19.3105 26.4825C19.3105 26.1778 19.0635 25.9308 18.7588 25.9308C18.4541 25.9308 18.207 26.1778 18.207 26.4825C18.207 26.7872 18.4541 27.0343 18.7588 27.0343Z" fill="#FFD250"/>
<path d="M16.5513 27.0343C16.856 27.0343 17.103 26.7872 17.103 26.4825C17.103 26.1778 16.856 25.9308 16.5513 25.9308C16.2465 25.9308 15.9995 26.1778 15.9995 26.4825C15.9995 26.7872 16.2465 27.0343 16.5513 27.0343Z" fill="#FFD250"/>
<path d="M20.965 27.0343C21.2697 27.0343 21.5168 26.7872 21.5168 26.4825C21.5168 26.1778 21.2697 25.9308 20.965 25.9308C20.6603 25.9308 20.4133 26.1778 20.4133 26.4825C20.4133 26.7872 20.6603 27.0343 20.965 27.0343Z" fill="#FFD250"/>
<path d="M14.345 32H8.82751V33.1035H14.345V32Z" fill="#C8414B"/>
<path d="M8.82849 36.4138L12.1387 35.3104V34.2069L8.82849 35.3104V36.4138Z" fill="#C8414B"/>
</svg>
