<svg width="64" height="64" viewBox="0 0 64 64" fill="none" xmlns="http://www.w3.org/2000/svg">
<path d="M59.2069 11.0345H4.79313C2.14588 11.0345 0 13.1804 0 15.8276V48.1725C0 50.8196 2.14588 52.9656 4.79313 52.9656H59.2069C61.854 52.9656 64 50.8197 64 48.1725V15.8276C64 13.1804 61.8541 11.0345 59.2069 11.0345Z" fill="#41479B"/>
<path d="M63.9336 15.0353C63.5559 12.7654 61.584 11.0344 59.2069 11.0344H57.9598L37.5173 24.4278V11.0345H26.4827V24.4279L6.04025 11.0345H4.79313C2.416 11.0345 0.444125 12.7654 0.066375 15.0354L17.5386 26.4829H0V37.5174H17.5386L0.066375 48.9646C0.444125 51.2345 2.416 52.9655 4.79313 52.9655H6.04025L26.4827 39.5721V52.9655H37.5173V39.5721L57.9598 52.9655H59.2069C61.584 52.9655 63.5559 51.2346 63.9336 48.9646L46.4614 37.5171H64V26.4826H46.4614L63.9336 15.0353Z" fill="#F5F5F5"/>
<path d="M35.3104 11.0345H28.6896V28.6896H0V35.3104H28.6896V52.9655H35.3104V35.3104H64V28.6896H35.3104V11.0345Z" fill="#FF4B55"/>
<path d="M3.09914 52.6565L26.422 37.5172H22.3685L1.15302 51.2887C1.67214 51.8946 2.33927 52.3694 3.09914 52.6565Z" fill="#FF4B55"/>
<path d="M43.2985 37.5172H39.245L61.8345 52.1804C62.4666 51.7652 62.9941 51.2045 63.3704 50.546L43.2985 37.5172Z" fill="#FF4B55"/>
<path d="M0.506104 13.6844L20.2224 26.4827H24.2759L1.93435 11.9802C1.33448 12.4267 0.843604 13.0105 0.506104 13.6844Z" fill="#FF4B55"/>
<path d="M41.5707 26.4827L62.8251 12.6858C62.3002 12.082 61.6278 11.61 60.8627 11.3283L37.5172 26.4827H41.5707Z" fill="#FF4B55"/>
</svg>
