<svg width="52" height="50" viewBox="0 0 52 50" fill="none" xmlns="http://www.w3.org/2000/svg">
<path d="M51.1266 21.9587L46.7337 17.956V4.6835C46.7337 3.83901 46.0491 3.15428 45.2045 3.15428H34.6303C33.7859 3.15428 33.1011 3.83891 33.1011 4.6835V5.53399L27.7959 0.699918C26.7719 -0.23334 25.2276 -0.233238 24.2039 0.699816L0.873219 21.9588C0.0530001 22.7063 -0.21807 23.858 0.182695 24.8928C0.583562 25.9276 1.55958 26.5962 2.66935 26.5962H6.39558V47.896C6.39558 48.7405 7.08021 49.4252 7.9248 49.4252H20.7128C21.5573 49.4252 22.2421 48.7406 22.2421 47.896V34.9634H29.7578V47.8961C29.7578 48.7406 30.4424 49.4253 31.287 49.4253H44.0745C44.919 49.4253 45.6038 48.7407 45.6037 47.8961V26.5963H49.3307C50.4404 26.5963 51.4165 25.9276 51.8174 24.8929C52.218 23.858 51.9471 22.7063 51.1266 21.9587ZM44.0745 23.5379C43.23 23.5379 42.5453 24.2225 42.5453 25.0671V46.3669H32.8163V33.4342C32.8163 32.5897 32.1316 31.905 31.2871 31.905H20.7128C19.8683 31.905 19.1836 32.5896 19.1836 33.4342V46.3669H9.45393V25.0671C9.45393 24.2226 8.76929 23.5379 7.9247 23.5379H3.68112L26.0001 3.201L33.6006 10.1266C34.0483 10.5345 34.6945 10.6396 35.2484 10.3952C35.8023 10.1504 36.1597 9.60177 36.1597 8.99625V6.21273H43.6755V18.6314C43.6755 19.0617 43.8567 19.4719 44.1748 19.7618L48.3188 23.5379H44.0745Z" fill="white"/>
</svg>
